<?xml version="1.0" standalone="no"?>
<!DOCTYPE svg PUBLIC "-//W3C//DTD SVG 20010904//EN"
 "http://www.w3.org/TR/2001/REC-SVG-20010904/DTD/svg10.dtd">
<svg version="1.0" xmlns="http://www.w3.org/2000/svg"
 width="512.000000pt" height="512.000000pt" viewBox="0 0 512.000000 512.000000"
 preserveAspectRatio="xMidYMid meet">
<metadata>
Created by potrace 1.14, written by Peter Selinger 2001-2017
</metadata>
<g transform="translate(0.000000,512.000000) scale(0.100000,-0.100000)"
fill="#000000" stroke="none">
<path d="M804 5105 c-241 -43 -440 -160 -585 -342 -111 -140 -175 -283 -203
-458 -15 -91 -17 -260 -14 -1795 l3 -1695 26 -96 c104 -373 401 -640 784 -703
91 -15 260 -17 1795 -14 l1695 3 96 26 c373 104 640 401 703 784 15 91 17 260
14 1795 l-3 1695 -26 96 c-103 370 -399 638 -778 703 -85 14 -272 16 -1765 15
-1312 -1 -1686 -4 -1742 -14z m2447 -403 c14 -12 22 -29 22 -48 0 -16 -93
-382 -207 -813 -113 -431 -206 -789 -206 -796 0 -6 11 -22 25 -35 l26 -24 132
130 c73 71 222 218 333 327 l200 197 399 -2 399 -3 15 -26 c8 -15 11 -36 8
-50 -4 -14 -219 -232 -518 -523 l-510 -499 490 -491 c424 -424 491 -495 491
-520 0 -16 -7 -38 -17 -48 -15 -17 -41 -18 -396 -18 l-379 0 -410 402 c-392
386 -475 465 -482 457 -1 -2 -78 -292 -170 -644 -129 -489 -174 -645 -190
-662 -43 -43 -749 -533 -769 -533 -26 0 -67 37 -67 61 0 16 960 3721 981 3787
11 32 30 43 373 212 198 98 371 179 382 179 12 1 32 -7 45 -17z m-1199 -1139
c10 -9 18 -29 18 -45 0 -32 -514 -2018 -530 -2047 -5 -10 -17 -21 -26 -25 -8
-3 -127 -6 -264 -6 -226 0 -250 2 -271 18 -14 12 -22 29 -22 48 0 16 83 350
184 743 172 670 182 715 168 740 l-15 26 -348 5 -348 5 -19 24 c-10 13 -19 30
-19 39 0 14 63 256 107 409 25 90 -39 83 705 83 601 0 663 -2 680 -17z"/>
</g>
</svg>
